<?xml version="1.0" standalone="no"?>
<!DOCTYPE svg PUBLIC "-//W3C//DTD SVG 20010904//EN"
 "http://www.w3.org/TR/2001/REC-SVG-20010904/DTD/svg10.dtd">
<svg version="1.0" xmlns="http://www.w3.org/2000/svg"
 width="1000.000000pt" height="1000.000000pt" viewBox="0 0 1000.000000 1000.000000"
 preserveAspectRatio="xMidYMid meet">

<g transform="translate(0.000000,1000.000000) scale(0.100000,-0.100000)"
fill="#000000" stroke="none">
<path d="M4840 9287 c-3 -3 -51 -8 -108 -11 -56 -4 -112 -9 -125 -12 -12 -2
-35 -6 -52 -9 -16 -2 -40 -6 -52 -9 -11 -2 -43 -8 -70 -12 -54 -9 -52 -9 -73
-16 -8 -3 -41 -11 -72 -18 -76 -15 -294 -86 -341 -110 -22 -11 -46 -20 -55
-21 -10 0 -39 -14 -67 -30 -27 -16 -57 -32 -65 -35 -48 -18 -110 -50 -110 -56
0 -5 -8 -8 -19 -8 -10 0 -30 -9 -44 -20 -14 -11 -28 -20 -31 -20 -3 0 -25 -13
-48 -30 -22 -16 -47 -30 -55 -30 -7 0 -18 -11 -24 -24 -7 -14 -17 -22 -25 -19
-7 3 -30 -9 -51 -26 -21 -17 -43 -31 -50 -31 -6 0 -18 -8 -25 -17 -7 -10 -32
-31 -55 -47 -24 -16 -72 -56 -108 -91 -36 -34 -65 -59 -65 -56 0 3 -52 -48
-115 -113 -63 -65 -115 -122 -115 -127 0 -4 -21 -29 -47 -56 -51 -52 -93 -122
-93 -154 0 -10 -6 -19 -13 -19 -21 0 -57 -44 -57 -69 0 -12 -4 -20 -8 -17 -15
9 -72 -72 -72 -103 0 -11 -7 -24 -15 -29 -15 -8 -30 -32 -75 -120 -18 -34 -20
-45 -10 -57 10 -12 9 -15 -9 -15 -25 0 -63 -68 -65 -117 -1 -18 -9 -38 -18
-45 -18 -14 -47 -89 -80 -203 -12 -38 -25 -79 -30 -91 -5 -11 -8 -24 -7 -30 2
-5 -2 -18 -8 -29 -11 -20 -34 -119 -31 -133 0 -4 -1 -14 -4 -22 -15 -43 -31
-129 -33 -186 -2 -36 -5 -68 -9 -71 -3 -3 -3 -16 0 -28 3 -13 1 -26 -5 -29
-15 -10 -14 -102 1 -143 10 -28 10 -38 -2 -56 -13 -22 -22 -115 -13 -149 2
-10 11 -18 19 -18 18 0 18 -26 0 -33 -17 -7 -20 -97 -4 -97 6 0 7 -7 4 -16 -4
-9 -1 -23 5 -30 9 -11 8 -18 -1 -29 -10 -12 -9 -22 4 -49 9 -19 16 -54 15 -78
-2 -96 6 -147 25 -161 13 -10 17 -21 13 -37 -9 -37 13 -132 39 -167 15 -20 24
-45 24 -70 0 -56 10 -82 32 -89 17 -5 19 -12 13 -49 -5 -37 -3 -45 13 -54 13
-7 18 -18 15 -34 -3 -17 4 -33 26 -55 18 -17 29 -37 25 -45 -3 -8 6 -27 20
-42 14 -15 23 -32 20 -37 -8 -13 23 -75 42 -82 10 -4 14 -13 11 -26 -3 -13 2
-25 14 -33 10 -8 16 -17 12 -21 -4 -4 -1 -11 7 -16 8 -5 15 -15 15 -22 0 -7
10 -14 23 -16 18 -3 21 -8 16 -28 -4 -17 1 -32 20 -55 14 -17 26 -35 26 -40 0
-5 9 -9 20 -9 13 0 20 -7 20 -20 0 -30 21 -69 41 -75 10 -3 16 -12 13 -19 -3
-8 12 -32 34 -55 21 -23 36 -41 33 -41 -3 0 9 -13 27 -30 18 -16 42 -30 53
-30 11 0 24 -11 31 -25 6 -14 15 -25 19 -25 4 0 5 -9 2 -20 -4 -14 0 -20 11
-20 9 0 21 -11 26 -26 16 -42 70 -84 98 -77 23 5 24 3 20 -21 -4 -22 -1 -29
16 -35 11 -5 19 -12 17 -17 -3 -5 9 -16 25 -24 16 -8 45 -31 64 -51 30 -31 69
-60 139 -104 9 -5 21 -18 28 -27 8 -10 23 -15 36 -13 16 3 27 -5 42 -28 11
-18 25 -33 30 -33 20 -2 75 -29 75 -35 0 -4 14 -15 30 -23 17 -9 43 -23 60
-32 17 -8 39 -13 50 -9 17 5 23 0 32 -25 9 -28 14 -31 39 -26 24 4 29 2 29
-13 0 -21 22 -33 45 -25 8 4 17 -1 21 -10 4 -11 13 -14 28 -10 17 4 27 -1 39
-19 12 -18 28 -25 67 -30 31 -4 57 -13 64 -23 7 -9 21 -14 32 -12 10 2 24 -2
29 -9 6 -7 19 -14 30 -16 11 -2 28 -7 37 -11 9 -4 22 -9 30 -10 7 -2 20 -6 29
-10 9 -4 20 -6 25 -4 5 1 20 -4 32 -11 21 -11 27 -10 47 9 15 14 25 18 30 11
3 -6 4 -15 1 -19 -6 -10 30 -30 59 -32 11 -1 34 -2 52 -3 17 -1 35 -5 38 -9 4
-4 14 -4 22 -1 8 3 19 0 23 -7 5 -8 14 -10 26 -5 27 12 54 14 54 3 0 -15 44
-26 74 -17 20 6 37 5 50 -4 28 -17 80 -21 105 -7 16 8 21 8 21 -1 0 -8 16 -10
54 -6 29 3 58 1 62 -3 8 -8 40 -4 89 10 6 2 23 0 39 -5 20 -5 31 -4 36 6 7 11
13 11 35 -1 20 -11 31 -11 44 -3 9 6 29 9 44 6 18 -4 27 -1 27 7 0 9 3 10 13
2 10 -9 19 -8 35 3 14 11 33 13 60 9 28 -4 43 -2 55 10 8 9 27 16 41 16 14 0
26 4 26 10 0 6 10 5 25 -2 20 -9 34 -9 59 0 18 7 42 12 53 12 12 0 23 5 25 12
2 6 20 11 39 10 41 -2 98 15 121 36 10 8 27 12 38 9 12 -3 25 1 33 12 7 11 32
20 61 24 27 4 63 14 79 22 17 8 35 15 40 15 12 0 99 40 107 49 3 3 11 7 19 9
23 5 127 58 141 72 3 3 19 12 35 20 17 8 38 21 48 29 10 8 24 16 31 17 25 4
93 55 104 78 8 18 16 22 36 19 20 -4 28 0 37 18 6 13 33 35 61 48 28 13 71 43
96 67 25 24 52 44 59 44 7 0 13 6 13 14 0 7 12 22 28 32 37 24 72 57 72 69 1
6 19 22 40 37 22 15 40 35 40 43 0 8 6 15 12 15 15 0 107 100 108 118 0 6 5
12 11 12 16 0 70 64 64 77 -2 7 2 13 9 13 8 0 21 11 30 25 9 14 14 25 12 25
-3 0 10 16 29 35 19 19 35 41 35 48 0 8 20 41 45 72 24 32 42 62 39 66 -3 5 0
9 5 9 6 0 20 17 30 38 51 98 71 144 66 152 -2 4 4 10 15 13 11 3 20 12 20 21
0 8 9 32 19 53 18 35 42 90 61 138 4 11 17 41 29 67 12 26 21 58 21 70 0 13 7
31 14 41 8 10 22 53 31 95 9 42 21 87 26 100 5 13 7 28 3 33 -3 6 0 16 6 24 7
8 10 22 6 30 -3 9 1 27 10 40 9 13 13 33 9 44 -3 10 -2 22 4 25 11 7 19 58 36
241 21 216 10 533 -24 715 -6 30 -12 66 -15 80 -27 155 -96 392 -147 510 -11
25 -28 63 -37 84 -36 83 -154 310 -182 352 -17 23 -30 45 -30 49 0 13 -121
178 -209 284 -83 102 -295 310 -418 412 -72 60 -134 109 -138 109 -3 0 -16 9
-28 21 -36 34 -248 165 -354 219 -129 65 -296 140 -315 140 -7 0 -18 4 -23 9
-35 31 -445 131 -620 151 -93 11 -497 24 -505 17z m-975 -1058 c4 -6 28 -8 62
-4 50 5 57 3 80 -20 16 -15 37 -25 55 -25 35 0 95 -38 102 -65 3 -11 19 -29
36 -40 29 -19 31 -23 25 -62 -6 -42 -6 -43 22 -43 35 0 53 -16 53 -46 0 -12 5
-24 10 -26 11 -3 19 -29 27 -88 3 -19 11 -38 18 -42 7 -4 10 -18 8 -32 -3 -14
3 -38 13 -56 15 -24 16 -32 6 -39 -12 -7 -10 -37 5 -81 3 -8 7 -31 9 -51 3
-28 -2 -41 -22 -60 l-25 -23 22 -17 c18 -13 22 -27 23 -75 1 -33 -4 -79 -11
-103 -8 -31 -9 -50 -2 -63 7 -12 7 -24 1 -31 -5 -7 -10 -24 -11 -39 -2 -49 -4
-58 -12 -58 -4 0 -11 -9 -14 -20 -3 -11 -13 -20 -20 -20 -11 0 -13 -17 -11
-75 3 -57 0 -75 -10 -75 -22 0 -26 -18 -10 -49 15 -27 14 -30 -7 -44 -20 -13
-22 -21 -19 -91 2 -44 -1 -76 -7 -76 -16 0 -40 -57 -28 -69 6 -6 4 -15 -7 -27
-11 -10 -14 -20 -8 -26 22 -22 -30 -78 -73 -78 -11 0 -14 -10 -10 -45 4 -37 0
-50 -17 -67 -21 -21 -68 -28 -103 -15 -12 5 -25 -1 -42 -19 -16 -17 -29 -24
-41 -19 -9 4 -34 9 -54 12 -32 5 -39 11 -48 39 -7 19 -18 34 -25 34 -8 0 -24
13 -36 30 -12 16 -35 32 -51 35 -37 9 -64 35 -47 46 8 5 0 12 -25 23 -31 13
-36 19 -31 39 5 20 0 29 -24 46 -24 18 -31 30 -31 57 0 22 -6 37 -16 41 -10 3
-14 13 -11 25 3 12 -1 22 -10 25 -10 4 -13 14 -9 34 5 29 -10 78 -28 91 -5 4
-4 19 4 37 12 29 11 34 -10 56 -14 15 -20 30 -16 41 4 10 1 21 -6 25 -8 5 -5
18 15 47 l26 40 -20 26 c-21 27 -17 43 16 69 6 4 -1 17 -17 32 -30 26 -34 45
-16 74 9 15 9 28 0 57 -7 24 -8 43 -1 55 11 21 8 97 -5 117 -5 9 -1 22 13 36
l21 22 -21 20 c-11 11 -20 31 -19 45 0 13 0 39 0 58 0 19 9 62 21 95 13 38 18
72 15 90 -10 46 20 125 50 132 21 5 24 12 24 55 0 37 4 49 15 49 8 0 21 15 29
34 14 34 44 46 118 46 20 0 32 8 43 30 15 28 25 34 52 31 6 -1 14 3 18 9 8 13
22 13 30 -1z m1959 -174 c27 -21 32 -22 55 -10 31 16 90 13 101 -5 4 -7 15
-10 23 -7 11 4 22 -5 36 -29 11 -19 27 -34 35 -34 9 0 22 -13 30 -29 9 -16 25
-31 37 -34 17 -5 21 -11 16 -33 -3 -20 0 -28 14 -31 13 -4 24 -23 35 -61 15
-51 15 -70 -2 -144 -5 -24 -3 -28 15 -28 11 0 21 -5 21 -12 0 -6 10 -22 21
-35 18 -18 20 -25 10 -37 -10 -12 -10 -22 3 -47 20 -40 20 -53 1 -69 -22 -18
-18 -39 9 -52 19 -8 24 -17 23 -42 -2 -17 -8 -40 -14 -51 -9 -15 -8 -26 3 -47
8 -15 10 -29 6 -32 -5 -3 -9 -24 -10 -46 -1 -23 -4 -46 -7 -50 -3 -5 0 -12 5
-15 7 -4 8 -19 5 -37 -5 -19 -2 -40 6 -55 12 -23 11 -27 -14 -47 l-28 -23 23
-15 c19 -13 23 -24 24 -74 0 -33 -4 -62 -9 -66 -7 -4 -5 -18 3 -37 8 -21 9
-35 3 -44 -15 -18 -23 -113 -12 -124 6 -6 4 -14 -6 -23 -14 -12 -14 -15 1 -32
17 -17 16 -20 -11 -49 -24 -25 -27 -33 -18 -48 7 -12 9 -31 3 -54 -4 -20 -6
-38 -4 -40 3 -2 -14 -17 -36 -32 -40 -27 -40 -29 -34 -75 6 -43 4 -49 -22 -69
-16 -12 -36 -20 -46 -18 -12 4 -25 -5 -39 -25 -18 -25 -26 -29 -48 -23 -14 4
-37 6 -51 6 -14 0 -37 5 -53 11 -22 9 -31 7 -46 -6 -18 -16 -20 -16 -38 9 -47
67 -44 65 -91 49 l-43 -15 -34 34 c-19 19 -37 46 -40 60 -6 21 -13 27 -34 27
-19 0 -35 10 -51 33 -14 17 -24 34 -24 37 1 3 4 17 8 32 6 25 2 29 -39 47 -39
17 -45 24 -45 50 0 21 -6 32 -20 36 -11 3 -21 15 -21 26 -2 22 -3 28 -12 49
-20 47 -24 68 -17 80 5 8 1 26 -10 45 -10 18 -16 43 -13 57 3 14 0 29 -7 33
-8 5 -8 11 1 22 10 12 10 16 -1 23 -20 12 7 97 34 104 18 5 16 9 -19 29 l-40
23 -1 134 c0 74 4 141 9 148 6 8 5 17 -3 27 -10 12 -10 18 -1 29 9 10 9 16 1
21 -6 4 -10 23 -8 42 1 21 -3 37 -12 43 -18 11 -24 64 -10 91 9 16 9 28 -1 51
-11 27 -10 32 10 47 l22 17 -20 26 c-27 34 -27 38 11 70 32 26 32 27 14 47
-16 18 -17 25 -8 46 8 16 20 25 35 25 34 0 37 7 21 46 -14 33 -13 36 12 59 15
14 33 25 40 25 8 0 14 4 14 9 0 10 59 35 77 32 6 -1 28 8 48 19 20 11 53 22
74 23 21 1 45 8 54 15 13 11 19 11 37 0 18 -11 22 -11 31 5 13 22 18 21 53 -8z
m-1684 -2902 c1 -5 11 -21 24 -36 20 -25 25 -27 48 -16 23 10 29 8 54 -18 16
-16 37 -33 47 -36 10 -4 16 -10 13 -15 -8 -14 9 -31 34 -35 20 -3 26 -11 28
-35 2 -23 8 -32 22 -32 37 0 50 -12 50 -46 0 -33 0 -33 40 -29 30 3 40 0 40
-11 0 -8 9 -14 19 -14 11 0 23 -9 26 -21 6 -17 13 -20 35 -16 22 5 29 2 33
-15 5 -18 11 -20 42 -14 28 6 42 3 55 -9 12 -11 20 -13 25 -5 7 11 66 4 98
-12 13 -7 23 -5 35 5 15 13 20 14 36 1 26 -19 33 -18 39 6 7 28 71 54 97 40
11 -6 25 -8 30 -5 6 3 10 1 10 -4 0 -25 22 -8 37 27 17 42 28 52 61 52 12 0
25 7 28 15 7 18 37 19 64 3 27 -17 56 1 53 35 -1 17 6 28 23 36 13 6 24 16 24
22 0 7 10 9 25 7 18 -4 29 1 40 18 20 32 32 30 53 -6 13 -22 24 -30 46 -30 16
0 38 -7 48 -17 17 -16 17 -17 -7 -50 -21 -27 -25 -42 -23 -80 3 -44 1 -48 -21
-51 -13 -2 -25 -12 -28 -22 -6 -24 -29 -33 -53 -20 -27 14 -30 13 -30 -14 0
-18 -8 -27 -32 -35 -17 -6 -37 -20 -45 -31 -8 -11 -20 -20 -27 -20 -8 0 -16
-7 -20 -15 -7 -18 -47 -20 -65 -2 -10 9 -15 9 -18 0 -9 -25 -40 -51 -75 -62
-21 -7 -38 -17 -38 -21 0 -5 -6 -7 -14 -4 -8 3 -17 1 -20 -5 -4 -6 -20 -8 -37
-4 -22 4 -38 0 -58 -15 -20 -14 -32 -17 -44 -10 -21 11 -66 8 -86 -6 -18 -14
-138 -19 -146 -6 -3 5 -17 7 -30 4 -18 -4 -25 -1 -30 15 -7 24 -17 26 -46 11
-16 -9 -21 -7 -29 16 -9 24 -14 26 -47 21 -25 -4 -42 -2 -53 8 -8 7 -19 13
-25 13 -5 0 -17 20 -25 43 -18 51 -46 69 -107 69 -24 0 -43 5 -43 10 0 6 -6
10 -14 10 -8 0 -23 17 -33 38 -11 20 -29 39 -39 41 -29 5 -44 21 -44 47 0 16
-6 24 -17 24 -21 1 -66 38 -82 69 -7 11 -21 21 -31 21 -27 0 -25 23 6 60 21
24 27 43 28 84 1 29 7 61 15 70 14 16 51 22 51 9z"/>
<path d="M4620 2969 c-147 -9 -272 -19 -324 -25 -41 -6 -264 -40 -321 -50
-136 -23 -458 -104 -496 -125 -11 -5 -19 -8 -19 -5 0 3 -33 -7 -72 -21 -40
-14 -102 -36 -138 -48 -265 -90 -627 -266 -890 -431 -108 -68 -210 -135 -245
-162 -16 -13 -39 -30 -50 -38 -11 -9 -54 -41 -97 -72 -118 -88 -257 -206 -258
-219 0 -6 -8 -14 -19 -18 -31 -9 -314 -296 -431 -435 -19 -23 -39 -47 -45 -53
-47 -55 -125 -156 -125 -163 0 -5 -23 -34 -50 -63 -28 -30 -50 -59 -50 -63 0
-4 -15 -29 -34 -55 -18 -27 -40 -61 -49 -78 -8 -16 -27 -43 -41 -58 -14 -15
-26 -35 -26 -43 0 -7 -4 -14 -10 -14 -5 0 -10 -9 -10 -20 0 -11 -5 -20 -11
-20 -5 0 -17 -15 -25 -33 -8 -17 -31 -54 -50 -82 -19 -27 -34 -58 -34 -67 0
-10 -4 -18 -9 -18 -5 0 -14 -12 -20 -27 -5 -16 -19 -44 -30 -63 -36 -63 -91
-185 -91 -202 0 -9 -5 -20 -11 -23 -6 -4 -8 -13 -5 -21 3 -8 -1 -14 -9 -14
-14 0 -39 -62 -37 -93 0 -10 -6 -21 -14 -24 -8 -3 -14 -9 -14 -14 0 -5 1837
-9 4430 -9 3635 0 4430 2 4430 13 0 7 -12 38 -26 68 -14 29 -29 63 -34 74 -36
88 -203 411 -275 529 -69 114 -291 434 -324 467 -9 9 -27 31 -41 49 -14 18
-30 38 -35 44 -6 6 -21 25 -33 41 -117 152 -507 532 -641 625 -20 14 -37 28
-39 32 -10 21 -349 260 -412 290 -14 6 -34 19 -45 29 -11 9 -40 28 -65 41 -25
14 -70 40 -100 58 -138 82 -442 222 -665 305 -140 53 -392 133 -450 144 -3 1
-6 1 -7 2 -2 0 -10 2 -18 4 -405 89 -473 102 -635 119 -82 9 -170 18 -195 21
-160 17 -489 24 -660 14z"/>
</g>
</svg>
